# xmcd
#
# Track frame offsets: 
#        150
#        15226
#        27376
#        40576
#        53951
#        68064
#        79626
#        92689
#        113879
#        133816
#        149053
#        158741
#        168528
#        177378
#        189742
#        202632
#
# Disc length: 2882 seconds
#
# Revision: 3
# Processed by: cddbd v1.5.2PL0 Copyright (c) Steve Scherf et al.
# Submitted via: ExactAudioCopy v0.99pb5
#
DISCID=d40b4010
DTITLE=Various Artist - COUNTRY FESTIVAL - VOLUME THREE
DYEAR=2000
DGENRE=Country
TTITLE0=JERRY LEE LEWIS - Turn Your Radio On
TTITLE1=HANK WILLIAMS - Your Cheatin' Heart
TTITLE2=ROY ACUFF - Tennessee Waltz
TTITLE3=TENNESSEE - Train To Santa Fé
TTITLE4=GEORGE JONES - A Good Year For The Roses
TTITLE5=BOBBY BARE - Music City U.S.A.
TTITLE6=DON WILLIAMS and THE POZO SECO SINGERS - Ruby Tuesday
TTITLE7=ANDRE LAMBERZ and HILL´S ANGELS - The Bluest Eyes Of Texas
TTITLE8=JOHN DENVER - Rocky Mountain High (Live)
TTITLE9=MELBA MONTGOMERY - No Charge
TTITLE10=NED MILLER - From A Jack To A King
TTITLE11=HANK LOCKLIN - Please Help Me I'm Fallin'
TTITLE12=JOHNNY CASH - Two Timin' Woman
TTITLE13=LYNN ANDERSON - Stand By Your Man
TTITLE14=LEE HAZLEWOOD - These Boots Are Made For Walking
TTITLE15=GLEN CAMPELL - Rhinestone Cowboy
EXTD=
EXTT0=
EXTT1=
EXTT2=
EXTT3=
EXTT4=
EXTT5=
EXTT6=
EXTT7=
EXTT8=
EXTT9=
EXTT10=
EXTT11=
EXTT12=
EXTT13=
EXTT14=
EXTT15=
PLAYORDER=
